<?xml version="1.0" encoding="utf-8" standalone="no"?>
<!DOCTYPE svg PUBLIC "-//W3C//DTD SVG 1.1//EN"
  "http://www.w3.org/Graphics/SVG/1.1/DTD/svg11.dtd">
<svg xmlns:xlink="http://www.w3.org/1999/xlink" width="1018.8pt" height="358.128pt" viewBox="0 0 1018.8 358.128" xmlns="http://www.w3.org/2000/svg" version="1.1">
 <metadata>
  <rdf:RDF xmlns:dc="http://purl.org/dc/elements/1.1/" xmlns:cc="http://creativecommons.org/ns#" xmlns:rdf="http://www.w3.org/1999/02/22-rdf-syntax-ns#">
   <cc:Work>
    <dc:type rdf:resource="http://purl.org/dc/dcmitype/StillImage"/>
    <dc:date>2026-04-15T04:51:21.563585</dc:date>
    <dc:format>image/svg+xml</dc:format>
    <dc:creator>
     <cc:Agent>
      <dc:title>Matplotlib v3.7.5, https://matplotlib.org/</dc:title>
     </cc:Agent>
    </dc:creator>
   </cc:Work>
  </rdf:RDF>
 </metadata>
 <defs>
  <style type="text/css">*{stroke-linejoin: round; stroke-linecap: butt}</style>
 </defs>
 <g id="figure_1">
  <g id="patch_1">
   <path d="M 0 358.128 
L 1018.8 358.128 
L 1018.8 0 
L 0 0 
z
" style="fill: #ffffff"/>
  </g>
  <g id="axes_1">
   <g id="patch_2">
    <path d="M 37.89 328.752 
L 439.65 328.752 
Q 456.39 328.752 456.39 312.12 
L 456.39 23.832 
Q 456.39 7.2 439.65 7.2 
L 37.89 7.2 
Q 21.15 7.2 21.15 23.832 
L 21.15 312.12 
Q 21.15 328.752 37.89 328.752 
z
" clip-path="url(#p267aa97376)" style="fill: #f8f9fa; stroke: #cccccc; stroke-width: 1.2; stroke-linejoin: miter"/>
   </g>
   <g id="patch_3">
    <path d="M 579.15 328.752 
L 980.91 328.752 
Q 997.65 328.752 997.65 312.12 
L 997.65 23.832 
Q 997.65 7.2 980.91 7.2 
L 579.15 7.2 
Q 562.41 7.2 562.41 23.832 
L 562.41 312.12 
Q 562.41 328.752 579.15 328.752 
z
" clip-path="url(#p267aa97376)" style="fill: #f8f9fa; stroke: #cccccc; stroke-width: 1.2; stroke-linejoin: miter"/>
   </g>
   <g id="patch_4">
    <path d="M 23.94 38.8008 
L 453.6 38.8008 
Q 453.6 38.8008 453.6 38.8008 
L 453.6 9.972 
Q 453.6 9.972 453.6 9.972 
L 23.94 9.972 
Q 23.94 9.972 23.94 9.972 
L 23.94 38.8008 
Q 23.94 38.8008 23.94 38.8008 
z
" clip-path="url(#p267aa97376)" style="fill: #1a5276"/>
   </g>
   <g id="patch_5">
    <path d="M 37.89 41.5728 
L 439.65 41.5728 
Q 456.39 41.5728 456.39 24.9408 
L 456.39 23.832 
Q 456.39 7.2 439.65 7.2 
L 37.89 7.2 
Q 21.15 7.2 21.15 23.832 
L 21.15 24.9408 
Q 21.15 41.5728 37.89 41.5728 
z
" clip-path="url(#p267aa97376)" style="fill: #1a5276"/>
   </g>
   <g id="patch_6">
    <path d="M 565.2 38.8008 
L 994.86 38.8008 
Q 994.86 38.8008 994.86 38.8008 
L 994.86 9.972 
Q 994.86 9.972 994.86 9.972 
L 565.2 9.972 
Q 565.2 9.972 565.2 9.972 
L 565.2 38.8008 
Q 565.2 38.8008 565.2 38.8008 
z
" clip-path="url(#p267aa97376)" style="fill: #512e5f"/>
   </g>
   <g id="patch_7">
    <path d="M 579.15 41.5728 
L 980.91 41.5728 
Q 997.65 41.5728 997.65 24.9408 
L 997.65 23.832 
Q 997.65 7.2 980.91 7.2 
L 579.15 7.2 
Q 562.41 7.2 562.41 23.832 
L 562.41 24.9408 
Q 562.41 41.5728 579.15 41.5728 
z
" clip-path="url(#p267aa97376)" style="fill: #512e5f"/>
   </g>
   <g id="text_1">
    <!-- Training Phase -->
    <g style="fill: #ffffff" transform="translate(184.777344 27.922806) scale(0.13 -0.13)">
     <defs>
      <path id="DejaVuSans-Bold-54" d="M 31 4666 
L 4331 4666 
L 4331 3756 
L 2784 3756 
L 2784 0 
L 1581 0 
L 1581 3756 
L 31 3756 
L 31 4666 
z
" transform="scale(0.015625)"/>
      <path id="DejaVuSans-Bold-72" d="M 3138 2547 
Q 2991 2616 2845 2648 
Q 2700 2681 2553 2681 
Q 2122 2681 1889 2404 
Q 1656 2128 1656 1613 
L 1656 0 
L 538 0 
L 538 3500 
L 1656 3500 
L 1656 2925 
Q 1872 3269 2151 3426 
Q 2431 3584 2822 3584 
Q 2878 3584 2943 3579 
Q 3009 3575 3134 3559 
L 3138 2547 
z
" transform="scale(0.015625)"/>
      <path id="DejaVuSans-Bold-61" d="M 2106 1575 
Q 1756 1575 1579 1456 
Q 1403 1338 1403 1106 
Q 1403 894 1545 773 
Q 1688 653 1941 653 
Q 2256 653 2472 879 
Q 2688 1106 2688 1447 
L 2688 1575 
L 2106 1575 
z
M 3816 1997 
L 3816 0 
L 2688 0 
L 2688 519 
Q 2463 200 2181 54 
Q 1900 -91 1497 -91 
Q 953 -91 614 226 
Q 275 544 275 1050 
Q 275 1666 698 1953 
Q 1122 2241 2028 2241 
L 2688 2241 
L 2688 2328 
Q 2688 2594 2478 2717 
Q 2269 2841 1825 2841 
Q 1466 2841 1156 2769 
Q 847 2697 581 2553 
L 581 3406 
Q 941 3494 1303 3539 
Q 1666 3584 2028 3584 
Q 2975 3584 3395 3211 
Q 3816 2838 3816 1997 
z
" transform="scale(0.015625)"/>
      <path id="DejaVuSans-Bold-69" d="M 538 3500 
L 1656 3500 
L 1656 0 
L 538 0 
L 538 3500 
z
M 538 4863 
L 1656 4863 
L 1656 3950 
L 538 3950 
L 538 4863 
z
" transform="scale(0.015625)"/>
      <path id="DejaVuSans-Bold-6e" d="M 4056 2131 
L 4056 0 
L 2931 0 
L 2931 347 
L 2931 1631 
Q 2931 2084 2911 2256 
Q 2891 2428 2841 2509 
Q 2775 2619 2662 2680 
Q 2550 2741 2406 2741 
Q 2056 2741 1856 2470 
Q 1656 2200 1656 1722 
L 1656 0 
L 538 0 
L 538 3500 
L 1656 3500 
L 1656 2988 
Q 1909 3294 2193 3439 
Q 2478 3584 2822 3584 
Q 3428 3584 3742 3212 
Q 4056 2841 4056 2131 
z
" transform="scale(0.015625)"/>
      <path id="DejaVuSans-Bold-67" d="M 2919 594 
Q 2688 288 2409 144 
Q 2131 0 1766 0 
Q 1125 0 706 504 
Q 288 1009 288 1791 
Q 288 2575 706 3076 
Q 1125 3578 1766 3578 
Q 2131 3578 2409 3434 
Q 2688 3291 2919 2981 
L 2919 3500 
L 4044 3500 
L 4044 353 
Q 4044 -491 3511 -936 
Q 2978 -1381 1966 -1381 
Q 1638 -1381 1331 -1331 
Q 1025 -1281 716 -1178 
L 716 -306 
Q 1009 -475 1290 -558 
Q 1572 -641 1856 -641 
Q 2406 -641 2662 -400 
Q 2919 -159 2919 353 
L 2919 594 
z
M 2181 2772 
Q 1834 2772 1640 2515 
Q 1447 2259 1447 1791 
Q 1447 1309 1634 1061 
Q 1822 813 2181 813 
Q 2531 813 2725 1069 
Q 2919 1325 2919 1791 
Q 2919 2259 2725 2515 
Q 2531 2772 2181 2772 
z
" transform="scale(0.015625)"/>
      <path id="DejaVuSans-Bold-20" transform="scale(0.015625)"/>
      <path id="DejaVuSans-Bold-50" d="M 588 4666 
L 2584 4666 
Q 3475 4666 3951 4270 
Q 4428 3875 4428 3144 
Q 4428 2409 3951 2014 
Q 3475 1619 2584 1619 
L 1791 1619 
L 1791 0 
L 588 0 
L 588 4666 
z
M 1791 3794 
L 1791 2491 
L 2456 2491 
Q 2806 2491 2997 2661 
Q 3188 2831 3188 3144 
Q 3188 3456 2997 3625 
Q 2806 3794 2456 3794 
L 1791 3794 
z
" transform="scale(0.015625)"/>
      <path id="DejaVuSans-Bold-68" d="M 4056 2131 
L 4056 0 
L 2931 0 
L 2931 347 
L 2931 1625 
Q 2931 2084 2911 2256 
Q 2891 2428 2841 2509 
Q 2775 2619 2662 2680 
Q 2550 2741 2406 2741 
Q 2056 2741 1856 2470 
Q 1656 2200 1656 1722 
L 1656 0 
L 538 0 
L 538 4863 
L 1656 4863 
L 1656 2988 
Q 1909 3294 2193 3439 
Q 2478 3584 2822 3584 
Q 3428 3584 3742 3212 
Q 4056 2841 4056 2131 
z
" transform="scale(0.015625)"/>
      <path id="DejaVuSans-Bold-73" d="M 3272 3391 
L 3272 2541 
Q 2913 2691 2578 2766 
Q 2244 2841 1947 2841 
Q 1628 2841 1473 2761 
Q 1319 2681 1319 2516 
Q 1319 2381 1436 2309 
Q 1553 2238 1856 2203 
L 2053 2175 
Q 2913 2066 3209 1816 
Q 3506 1566 3506 1031 
Q 3506 472 3093 190 
Q 2681 -91 1863 -91 
Q 1516 -91 1145 -36 
Q 775 19 384 128 
L 384 978 
Q 719 816 1070 734 
Q 1422 653 1784 653 
Q 2113 653 2278 743 
Q 2444 834 2444 1013 
Q 2444 1163 2330 1236 
Q 2216 1309 1875 1350 
L 1678 1375 
Q 931 1469 631 1722 
Q 331 1975 331 2491 
Q 331 3047 712 3315 
Q 1094 3584 1881 3584 
Q 2191 3584 2531 3537 
Q 2872 3491 3272 3391 
z
" transform="scale(0.015625)"/>
      <path id="DejaVuSans-Bold-65" d="M 4031 1759 
L 4031 1441 
L 1416 1441 
Q 1456 1047 1700 850 
Q 1944 653 2381 653 
Q 2734 653 3104 758 
Q 3475 863 3866 1075 
L 3866 213 
Q 3469 63 3072 -14 
Q 2675 -91 2278 -91 
Q 1328 -91 801 392 
Q 275 875 275 1747 
Q 275 2603 792 3093 
Q 1309 3584 2216 3584 
Q 3041 3584 3536 3087 
Q 4031 2591 4031 1759 
z
M 2881 2131 
Q 2881 2450 2695 2645 
Q 2509 2841 2209 2841 
Q 1884 2841 1681 2658 
Q 1478 2475 1428 2131 
L 2881 2131 
z
" transform="scale(0.015625)"/>
     </defs>
     <use xlink:href="#DejaVuSans-Bold-54"/>
     <use xlink:href="#DejaVuSans-Bold-72" x="57.212891"/>
     <use xlink:href="#DejaVuSans-Bold-61" x="106.529297"/>
     <use xlink:href="#DejaVuSans-Bold-69" x="174.009766"/>
     <use xlink:href="#DejaVuSans-Bold-6e" x="208.287109"/>
     <use xlink:href="#DejaVuSans-Bold-69" x="279.478516"/>
     <use xlink:href="#DejaVuSans-Bold-6e" x="313.755859"/>
     <use xlink:href="#DejaVuSans-Bold-67" x="384.947266"/>
     <use xlink:href="#DejaVuSans-Bold-20" x="456.529297"/>
     <use xlink:href="#DejaVuSans-Bold-50" x="491.34375"/>
     <use xlink:href="#DejaVuSans-Bold-68" x="564.634766"/>
     <use xlink:href="#DejaVuSans-Bold-61" x="635.826172"/>
     <use xlink:href="#DejaVuSans-Bold-73" x="703.306641"/>
     <use xlink:href="#DejaVuSans-Bold-65" x="762.828125"/>
    </g>
   </g>
   <g id="text_2">
    <!-- Inference Phase -->
    <g style="fill: #ffffff" transform="translate(720.926719 27.973588) scale(0.13 -0.13)">
     <defs>
      <path id="DejaVuSans-Bold-49" d="M 588 4666 
L 1791 4666 
L 1791 0 
L 588 0 
L 588 4666 
z
" transform="scale(0.015625)"/>
      <path id="DejaVuSans-Bold-66" d="M 2841 4863 
L 2841 4128 
L 2222 4128 
Q 1984 4128 1890 4042 
Q 1797 3956 1797 3744 
L 1797 3500 
L 2753 3500 
L 2753 2700 
L 1797 2700 
L 1797 0 
L 678 0 
L 678 2700 
L 122 2700 
L 122 3500 
L 678 3500 
L 678 3744 
Q 678 4316 997 4589 
Q 1316 4863 1984 4863 
L 2841 4863 
z
" transform="scale(0.015625)"/>
      <path id="DejaVuSans-Bold-63" d="M 3366 3391 
L 3366 2478 
Q 3138 2634 2908 2709 
Q 2678 2784 2431 2784 
Q 1963 2784 1702 2511 
Q 1441 2238 1441 1747 
Q 1441 1256 1702 982 
Q 1963 709 2431 709 
Q 2694 709 2930 787 
Q 3166 866 3366 1019 
L 3366 103 
Q 3103 6 2833 -42 
Q 2563 -91 2291 -91 
Q 1344 -91 809 395 
Q 275 881 275 1747 
Q 275 2613 809 3098 
Q 1344 3584 2291 3584 
Q 2566 3584 2833 3536 
Q 3100 3488 3366 3391 
z
" transform="scale(0.015625)"/>
     </defs>
     <use xlink:href="#DejaVuSans-Bold-49"/>
     <use xlink:href="#DejaVuSans-Bold-6e" x="37.207031"/>
     <use xlink:href="#DejaVuSans-Bold-66" x="108.398438"/>
     <use xlink:href="#DejaVuSans-Bold-65" x="151.904297"/>
     <use xlink:href="#DejaVuSans-Bold-72" x="219.726562"/>
     <use xlink:href="#DejaVuSans-Bold-65" x="269.042969"/>
     <use xlink:href="#DejaVuSans-Bold-6e" x="336.865234"/>
     <use xlink:href="#DejaVuSans-Bold-63" x="408.056641"/>
     <use xlink:href="#DejaVuSans-Bold-65" x="467.333984"/>
     <use xlink:href="#DejaVuSans-Bold-20" x="535.15625"/>
     <use xlink:href="#DejaVuSans-Bold-50" x="569.970703"/>
     <use xlink:href="#DejaVuSans-Bold-68" x="643.261719"/>
     <use xlink:href="#DejaVuSans-Bold-61" x="714.453125"/>
     <use xlink:href="#DejaVuSans-Bold-73" x="781.933594"/>
     <use xlink:href="#DejaVuSans-Bold-65" x="841.455078"/>
    </g>
   </g>
   <g id="patch_8">
    <path d="M 86.436 88.1424 
L 352.044 88.1424 
Q 362.088 88.1424 362.088 78.1632 
L 362.088 49.3344 
Q 362.088 39.3552 352.044 39.3552 
L 86.436 39.3552 
Q 76.392 39.3552 76.392 49.3344 
L 76.392 78.1632 
Q 76.392 88.1424 86.436 88.1424 
z
" clip-path="url(#p267aa97376)" style="fill: #ffffff; stroke: #c0392b; stroke-width: 2.2; stroke-linejoin: miter"/>
   </g>
   <g id="patch_9">
    <path d="M 86.436 157.9968 
L 352.044 157.9968 
Q 362.088 157.9968 362.088 148.0176 
L 362.088 119.1888 
Q 362.088 109.2096 352.044 109.2096 
L 86.436 109.2096 
Q 76.392 109.2096 76.392 119.1888 
L 76.392 148.0176 
Q 76.392 157.9968 86.436 157.9968 
z
" clip-path="url(#p267aa97376)" style="fill: #ffffff; stroke: #1a5276; stroke-width: 2.2; stroke-linejoin: miter"/>
   </g>
   <g id="patch_10">
    <path d="M 86.436 227.8512 
L 352.044 227.8512 
Q 362.088 227.8512 362.088 217.872 
L 362.088 189.0432 
Q 362.088 179.064 352.044 179.064 
L 86.436 179.064 
Q 76.392 179.064 76.392 189.0432 
L 76.392 217.872 
Q 76.392 227.8512 86.436 227.8512 
z
" clip-path="url(#p267aa97376)" style="fill: #ffffff; stroke: #0e6655; stroke-width: 2.2; stroke-linejoin: miter"/>
   </g>
   <g id="patch_11">
    <path d="M 381.06 159.66 
L 429.048 159.66 
Q 439.092 159.66 439.092 149.6808 
L 439.092 117.5256 
Q 439.092 107.5464 429.048 107.5464 
L 381.06 107.5464 
Q 371.016 107.5464 371.016 117.5256 
L 371.016 149.6808 
Q 371.016 159.66 381.06 159.66 
z
" clip-path="url(#p267aa97376)" style="fill: #ffffff; stroke: #1e8449; stroke-width: 2.2; stroke-linejoin: miter"/>
   </g>
   <g id="patch_12">
    <path d="M 647.226 88.1424 
L 912.834 88.1424 
Q 922.878 88.1424 922.878 78.1632 
L 922.878 49.3344 
Q 922.878 39.3552 912.834 39.3552 
L 647.226 39.3552 
Q 637.182 39.3552 637.182 49.3344 
L 637.182 78.1632 
Q 637.182 88.1424 647.226 88.1424 
z
" clip-path="url(#p267aa97376)" style="fill: #ffffff; stroke: #c0392b; stroke-width: 2.2; stroke-linejoin: miter"/>
   </g>
   <g id="patch_13">
    <path d="M 647.226 157.9968 
L 912.834 157.9968 
Q 922.878 157.9968 922.878 148.0176 
L 922.878 119.1888 
Q 922.878 109.2096 912.834 109.2096 
L 647.226 109.2096 
Q 637.182 109.2096 637.182 119.1888 
L 637.182 148.0176 
Q 637.182 157.9968 647.226 157.9968 
z
" clip-path="url(#p267aa97376)" style="fill: #ffffff; stroke: #1a5276; stroke-width: 2.2; stroke-linejoin: miter"/>
   </g>
   <g id="patch_14">
    <path d="M 647.226 227.8512 
L 912.834 227.8512 
Q 922.878 227.8512 922.878 217.872 
L 922.878 189.0432 
Q 922.878 179.064 912.834 179.064 
L 647.226 179.064 
Q 637.182 179.064 637.182 189.0432 
L 637.182 217.872 
Q 637.182 227.8512 647.226 227.8512 
z
" clip-path="url(#p267aa97376)" style="fill: #ffffff; stroke: #0e6655; stroke-width: 2.2; stroke-linejoin: miter"/>
   </g>
   <g id="patch_15">
    <path d="M 647.226 297.7056 
L 912.834 297.7056 
Q 922.878 297.7056 922.878 287.7264 
L 922.878 258.8976 
Q 922.878 248.9184 912.834 248.9184 
L 647.226 248.9184 
Q 637.182 248.9184 637.182 258.8976 
L 637.182 287.7264 
Q 637.182 297.7056 647.226 297.7056 
z
" clip-path="url(#p267aa97376)" style="fill: #ffffff; stroke: #6c3483; stroke-width: 2.2; stroke-linejoin: miter"/>
   </g>
   <g id="text_3">
    <!-- Corrupted Observation -->
    <g style="fill: #1c2833" transform="translate(138.403086 59.990819) scale(0.125 -0.125)">
     <defs>
      <path id="DejaVuSans-Bold-43" d="M 4288 256 
Q 3956 84 3597 -3 
Q 3238 -91 2847 -91 
Q 1681 -91 1000 561 
Q 319 1213 319 2328 
Q 319 3447 1000 4098 
Q 1681 4750 2847 4750 
Q 3238 4750 3597 4662 
Q 3956 4575 4288 4403 
L 4288 3438 
Q 3953 3666 3628 3772 
Q 3303 3878 2944 3878 
Q 2300 3878 1931 3465 
Q 1563 3053 1563 2328 
Q 1563 1606 1931 1193 
Q 2300 781 2944 781 
Q 3303 781 3628 887 
Q 3953 994 4288 1222 
L 4288 256 
z
" transform="scale(0.015625)"/>
      <path id="DejaVuSans-Bold-6f" d="M 2203 2784 
Q 1831 2784 1636 2517 
Q 1441 2250 1441 1747 
Q 1441 1244 1636 976 
Q 1831 709 2203 709 
Q 2569 709 2762 976 
Q 2956 1244 2956 1747 
Q 2956 2250 2762 2517 
Q 2569 2784 2203 2784 
z
M 2203 3584 
Q 3106 3584 3614 3096 
Q 4122 2609 4122 1747 
Q 4122 884 3614 396 
Q 3106 -91 2203 -91 
Q 1297 -91 786 396 
Q 275 884 275 1747 
Q 275 2609 786 3096 
Q 1297 3584 2203 3584 
z
" transform="scale(0.015625)"/>
      <path id="DejaVuSans-Bold-75" d="M 500 1363 
L 500 3500 
L 1625 3500 
L 1625 3150 
Q 1625 2866 1622 2436 
Q 1619 2006 1619 1863 
Q 1619 1441 1641 1255 
Q 1663 1069 1716 984 
Q 1784 875 1895 815 
Q 2006 756 2150 756 
Q 2500 756 2700 1025 
Q 2900 1294 2900 1772 
L 2900 3500 
L 4019 3500 
L 4019 0 
L 2900 0 
L 2900 506 
Q 2647 200 2364 54 
Q 2081 -91 1741 -91 
Q 1134 -91 817 281 
Q 500 653 500 1363 
z
" transform="scale(0.015625)"/>
      <path id="DejaVuSans-Bold-70" d="M 1656 506 
L 1656 -1331 
L 538 -1331 
L 538 3500 
L 1656 3500 
L 1656 2988 
Q 1888 3294 2169 3439 
Q 2450 3584 2816 3584 
Q 3463 3584 3878 3070 
Q 4294 2556 4294 1747 
Q 4294 938 3878 423 
Q 3463 -91 2816 -91 
Q 2450 -91 2169 54 
Q 1888 200 1656 506 
z
M 2400 2772 
Q 2041 2772 1848 2508 
Q 1656 2244 1656 1747 
Q 1656 1250 1848 986 
Q 2041 722 2400 722 
Q 2759 722 2948 984 
Q 3138 1247 3138 1747 
Q 3138 2247 2948 2509 
Q 2759 2772 2400 2772 
z
" transform="scale(0.015625)"/>
      <path id="DejaVuSans-Bold-74" d="M 1759 4494 
L 1759 3500 
L 2913 3500 
L 2913 2700 
L 1759 2700 
L 1759 1216 
Q 1759 972 1856 886 
Q 1953 800 2241 800 
L 2816 800 
L 2816 0 
L 1856 0 
Q 1194 0 917 276 
Q 641 553 641 1216 
L 641 2700 
L 84 2700 
L 84 3500 
L 641 3500 
L 641 4494 
L 1759 4494 
z
" transform="scale(0.015625)"/>
      <path id="DejaVuSans-Bold-64" d="M 2919 2988 
L 2919 4863 
L 4044 4863 
L 4044 0 
L 2919 0 
L 2919 506 
Q 2688 197 2409 53 
Q 2131 -91 1766 -91 
Q 1119 -91 703 423 
Q 288 938 288 1747 
Q 288 2556 703 3070 
Q 1119 3584 1766 3584 
Q 2128 3584 2408 3439 
Q 2688 3294 2919 2988 
z
M 2181 722 
Q 2541 722 2730 984 
Q 2919 1247 2919 1747 
Q 2919 2247 2730 2509 
Q 2541 2772 2181 2772 
Q 1825 2772 1636 2509 
Q 1447 2247 1447 1747 
Q 1447 1247 1636 984 
Q 1825 722 2181 722 
z
" transform="scale(0.015625)"/>
      <path id="DejaVuSans-Bold-4f" d="M 2719 3878 
Q 2169 3878 1866 3472 
Q 1563 3066 1563 2328 
Q 1563 1594 1866 1187 
Q 2169 781 2719 781 
Q 3272 781 3575 1187 
Q 3878 1594 3878 2328 
Q 3878 3066 3575 3472 
Q 3272 3878 2719 3878 
z
M 2719 4750 
Q 3844 4750 4481 4106 
Q 5119 3463 5119 2328 
Q 5119 1197 4481 553 
Q 3844 -91 2719 -91 
Q 1597 -91 958 553 
Q 319 1197 319 2328 
Q 319 3463 958 4106 
Q 1597 4750 2719 4750 
z
" transform="scale(0.015625)"/>
      <path id="DejaVuSans-Bold-62" d="M 2400 722 
Q 2759 722 2948 984 
Q 3138 1247 3138 1747 
Q 3138 2247 2948 2509 
Q 2759 2772 2400 2772 
Q 2041 2772 1848 2508 
Q 1656 2244 1656 1747 
Q 1656 1250 1848 986 
Q 2041 722 2400 722 
z
M 1656 2988 
Q 1888 3294 2169 3439 
Q 2450 3584 2816 3584 
Q 3463 3584 3878 3070 
Q 4294 2556 4294 1747 
Q 4294 938 3878 423 
Q 3463 -91 2816 -91 
Q 2450 -91 2169 54 
Q 1888 200 1656 506 
L 1656 0 
L 538 0 
L 538 4863 
L 1656 4863 
L 1656 2988 
z
" transform="scale(0.015625)"/>
      <path id="DejaVuSans-Bold-76" d="M 97 3500 
L 1216 3500 
L 2088 1081 
L 2956 3500 
L 4078 3500 
L 2700 0 
L 1472 0 
L 97 3500 
z
" transform="scale(0.015625)"/>
     </defs>
     <use xlink:href="#DejaVuSans-Bold-43"/>
     <use xlink:href="#DejaVuSans-Bold-6f" x="73.388672"/>
     <use xlink:href="#DejaVuSans-Bold-72" x="142.089844"/>
     <use xlink:href="#DejaVuSans-Bold-72" x="191.40625"/>
     <use xlink:href="#DejaVuSans-Bold-75" x="240.722656"/>
     <use xlink:href="#DejaVuSans-Bold-70" x="311.914062"/>
     <use xlink:href="#DejaVuSans-Bold-74" x="383.496094"/>
     <use xlink:href="#DejaVuSans-Bold-65" x="431.298828"/>
     <use xlink:href="#DejaVuSans-Bold-64" x="499.121094"/>
     <use xlink:href="#DejaVuSans-Bold-20" x="570.703125"/>
     <use xlink:href="#DejaVuSans-Bold-4f" x="605.517578"/>
     <use xlink:href="#DejaVuSans-Bold-62" x="690.527344"/>
     <use xlink:href="#DejaVuSans-Bold-73" x="762.109375"/>
     <use xlink:href="#DejaVuSans-Bold-65" x="821.630859"/>
     <use xlink:href="#DejaVuSans-Bold-72" x="889.453125"/>
     <use xlink:href="#DejaVuSans-Bold-76" x="938.769531"/>
     <use xlink:href="#DejaVuSans-Bold-61" x="1003.955078"/>
     <use xlink:href="#DejaVuSans-Bold-74" x="1071.435547"/>
     <use xlink:href="#DejaVuSans-Bold-69" x="1119.238281"/>
     <use xlink:href="#DejaVuSans-Bold-6f" x="1153.515625"/>
     <use xlink:href="#DejaVuSans-Bold-6e" x="1222.216797"/>
    </g>
   </g>
   <g id="text_4">
    <!-- synthetic corruption -->
    <g style="fill: #5d6d7e" transform="translate(171.297656 78.567006) scale(0.095 -0.095)">
     <defs>
      <path id="DejaVuSans-Oblique-73" d="M 3200 3397 
L 3091 2853 
Q 2863 2978 2609 3040 
Q 2356 3103 2088 3103 
Q 1634 3103 1373 2948 
Q 1113 2794 1113 2528 
Q 1113 2219 1719 2053 
Q 1766 2041 1788 2034 
L 1972 1978 
Q 2547 1819 2739 1644 
Q 2931 1469 2931 1166 
Q 2931 609 2489 259 
Q 2047 -91 1331 -91 
Q 1053 -91 747 -37 
Q 441 16 72 128 
L 184 722 
Q 500 559 806 475 
Q 1113 391 1394 391 
Q 1816 391 2080 572 
Q 2344 753 2344 1031 
Q 2344 1331 1650 1516 
L 1591 1531 
L 1394 1581 
Q 956 1697 753 1886 
Q 550 2075 550 2369 
Q 550 2928 970 3256 
Q 1391 3584 2113 3584 
Q 2397 3584 2667 3537 
Q 2938 3491 3200 3397 
z
" transform="scale(0.015625)"/>
      <path id="DejaVuSans-Oblique-79" d="M 1588 -325 
Q 1188 -997 936 -1164 
Q 684 -1331 294 -1331 
L -159 -1331 
L -63 -850 
L 269 -850 
Q 509 -850 678 -719 
Q 847 -588 1056 -206 
L 1234 128 
L 459 3500 
L 1069 3500 
L 1650 819 
L 3256 3500 
L 3859 3500 
L 1588 -325 
z
" transform="scale(0.015625)"/>
      <path id="DejaVuSans-Oblique-6e" d="M 3566 2113 
L 3156 0 
L 2578 0 
L 2988 2091 
Q 3016 2238 3031 2350 
Q 3047 2463 3047 2528 
Q 3047 2791 2881 2937 
Q 2716 3084 2419 3084 
Q 1956 3084 1622 2776 
Q 1288 2469 1184 1941 
L 800 0 
L 225 0 
L 903 3500 
L 1478 3500 
L 1363 2950 
Q 1603 3253 1940 3418 
Q 2278 3584 2650 3584 
Q 3113 3584 3367 3334 
Q 3622 3084 3622 2631 
Q 3622 2519 3608 2391 
Q 3594 2263 3566 2113 
z
" transform="scale(0.015625)"/>
      <path id="DejaVuSans-Oblique-74" d="M 2706 3500 
L 2619 3053 
L 1472 3053 
L 1100 1153 
Q 1081 1047 1072 975 
Q 1063 903 1063 863 
Q 1063 663 1183 572 
Q 1303 481 1569 481 
L 2150 481 
L 2053 0 
L 1503 0 
Q 991 0 739 200 
Q 488 400 488 806 
Q 488 878 497 964 
Q 506 1050 525 1153 
L 897 3053 
L 409 3053 
L 500 3500 
L 978 3500 
L 1172 4494 
L 1747 4494 
L 1556 3500 
L 2706 3500 
z
" transform="scale(0.015625)"/>
      <path id="DejaVuSans-Oblique-68" d="M 3566 2113 
L 3156 0 
L 2578 0 
L 2988 2091 
Q 3016 2238 3031 2350 
Q 3047 2463 3047 2528 
Q 3047 2791 2881 2937 
Q 2716 3084 2419 3084 
Q 1956 3084 1617 2771 
Q 1278 2459 1178 1941 
L 800 0 
L 225 0 
L 1172 4863 
L 1747 4863 
L 1375 2950 
Q 1594 3244 1934 3414 
Q 2275 3584 2650 3584 
Q 3113 3584 3367 3334 
Q 3622 3084 3622 2631 
Q 3622 2519 3608 2391 
Q 3594 2263 3566 2113 
z
" transform="scale(0.015625)"/>
      <path id="DejaVuSans-Oblique-65" d="M 3078 2063 
Q 3088 2113 3092 2166 
Q 3097 2219 3097 2272 
Q 3097 2653 2873 2875 
Q 2650 3097 2266 3097 
Q 1838 3097 1509 2826 
Q 1181 2556 1013 2059 
L 3078 2063 
z
M 3578 1613 
L 903 1613 
Q 884 1494 878 1425 
Q 872 1356 872 1306 
Q 872 872 1139 634 
Q 1406 397 1894 397 
Q 2269 397 2603 481 
Q 2938 566 3225 728 
L 3116 159 
Q 2806 34 2476 -28 
Q 2147 -91 1806 -91 
Q 1078 -91 686 257 
Q 294 606 294 1247 
Q 294 1794 489 2264 
Q 684 2734 1063 3103 
Q 1306 3334 1642 3459 
Q 1978 3584 2356 3584 
Q 2950 3584 3301 3228 
Q 3653 2872 3653 2272 
Q 3653 2128 3634 1964 
Q 3616 1800 3578 1613 
z
" transform="scale(0.015625)"/>
      <path id="DejaVuSans-Oblique-69" d="M 1172 4863 
L 1747 4863 
L 1606 4134 
L 1031 4134 
L 1172 4863 
z
M 909 3500 
L 1484 3500 
L 800 0 
L 225 0 
L 909 3500 
z
" transform="scale(0.015625)"/>
      <path id="DejaVuSans-Oblique-63" d="M 3431 3366 
L 3316 2797 
Q 3109 2947 2876 3022 
Q 2644 3097 2394 3097 
Q 2119 3097 1870 3000 
Q 1622 2903 1453 2725 
Q 1184 2453 1037 2087 
Q 891 1722 891 1331 
Q 891 859 1127 628 
Q 1363 397 1844 397 
Q 2081 397 2348 469 
Q 2616 541 2906 684 
L 2797 116 
Q 2547 13 2283 -39 
Q 2019 -91 1741 -91 
Q 1044 -91 669 257 
Q 294 606 294 1253 
Q 294 1797 489 2255 
Q 684 2713 1069 3078 
Q 1331 3328 1684 3456 
Q 2038 3584 2456 3584 
Q 2700 3584 2940 3529 
Q 3181 3475 3431 3366 
z
" transform="scale(0.015625)"/>
      <path id="DejaVuSans-Oblique-20" transform="scale(0.015625)"/>
      <path id="DejaVuSans-Oblique-6f" d="M 1625 -91 
Q 1009 -91 651 289 
Q 294 669 294 1325 
Q 294 1706 417 2101 
Q 541 2497 738 2766 
Q 1047 3184 1428 3384 
Q 1809 3584 2291 3584 
Q 2888 3584 3255 3212 
Q 3622 2841 3622 2241 
Q 3622 1825 3500 1412 
Q 3378 1000 3181 728 
Q 2875 309 2494 109 
Q 2113 -91 1625 -91 
z
M 891 1344 
Q 891 869 1089 633 
Q 1288 397 1691 397 
Q 2269 397 2648 901 
Q 3028 1406 3028 2181 
Q 3028 2634 2825 2865 
Q 2622 3097 2228 3097 
Q 1903 3097 1650 2945 
Q 1397 2794 1197 2484 
Q 1050 2253 970 1956 
Q 891 1659 891 1344 
z
" transform="scale(0.015625)"/>
      <path id="DejaVuSans-Oblique-72" d="M 2853 2969 
Q 2766 3016 2653 3041 
Q 2541 3066 2413 3066 
Q 1953 3066 1609 2717 
Q 1266 2369 1153 1784 
L 800 0 
L 225 0 
L 909 3500 
L 1484 3500 
L 1375 2956 
Q 1603 3259 1920 3421 
Q 2238 3584 2597 3584 
Q 2691 3584 2781 3573 
Q 2872 3563 2963 3538 
L 2853 2969 
z
" transform="scale(0.015625)"/>
      <path id="DejaVuSans-Oblique-75" d="M 428 1388 
L 838 3500 
L 1416 3500 
L 1006 1409 
Q 975 1256 961 1147 
Q 947 1038 947 966 
Q 947 700 1109 554 
Q 1272 409 1569 409 
Q 2031 409 2368 721 
Q 2706 1034 2809 1563 
L 3194 3500 
L 3769 3500 
L 3091 0 
L 2516 0 
L 2631 550 
Q 2388 244 2052 76 
Q 1716 -91 1338 -91 
Q 878 -91 622 161 
Q 366 413 366 863 
Q 366 956 381 1097 
Q 397 1238 428 1388 
z
" transform="scale(0.015625)"/>
      <path id="DejaVuSans-Oblique-70" d="M 3175 2156 
Q 3175 2616 2975 2859 
Q 2775 3103 2400 3103 
Q 2144 3103 1911 2972 
Q 1678 2841 1497 2591 
Q 1319 2344 1212 1994 
Q 1106 1644 1106 1300 
Q 1106 863 1306 627 
Q 1506 391 1875 391 
Q 2147 391 2380 519 
Q 2613 647 2778 891 
Q 2956 1147 3065 1494 
Q 3175 1841 3175 2156 
z
M 1394 2969 
Q 1625 3272 1939 3428 
Q 2253 3584 2638 3584 
Q 3175 3584 3472 3232 
Q 3769 2881 3769 2247 
Q 3769 1728 3584 1258 
Q 3400 788 3053 416 
Q 2822 169 2531 39 
Q 2241 -91 1919 -91 
Q 1547 -91 1294 64 
Q 1041 219 916 525 
L 556 -1331 
L -19 -1331 
L 922 3500 
L 1497 3500 
L 1394 2969 
z
" transform="scale(0.015625)"/>
     </defs>
     <use xlink:href="#DejaVuSans-Oblique-73"/>
     <use xlink:href="#DejaVuSans-Oblique-79" x="52.099609"/>
     <use xlink:href="#DejaVuSans-Oblique-6e" x="111.279297"/>
     <use xlink:href="#DejaVuSans-Oblique-74" x="174.658203"/>
     <use xlink:href="#DejaVuSans-Oblique-68" x="213.867188"/>
     <use xlink:href="#DejaVuSans-Oblique-65" x="277.246094"/>
     <use xlink:href="#DejaVuSans-Oblique-74" x="338.769531"/>
     <use xlink:href="#DejaVuSans-Oblique-69" x="377.978516"/>
     <use xlink:href="#DejaVuSans-Oblique-63" x="405.761719"/>
     <use xlink:href="#DejaVuSans-Oblique-20" x="460.742188"/>
     <use xlink:href="#DejaVuSans-Oblique-63" x="492.529297"/>
     <use xlink:href="#DejaVuSans-Oblique-6f" x="547.509766"/>
     <use xlink:href="#DejaVuSans-Oblique-72" x="608.691406"/>
     <use xlink:href="#DejaVuSans-Oblique-72" x="649.804688"/>
     <use xlink:href="#DejaVuSans-Oblique-75" x="690.917969"/>
     <use xlink:href="#DejaVuSans-Oblique-70" x="754.296875"/>
     <use xlink:href="#DejaVuSans-Oblique-74" x="817.773438"/>
     <use xlink:href="#DejaVuSans-Oblique-69" x="856.982422"/>
     <use xlink:href="#DejaVuSans-Oblique-6f" x="884.765625"/>
     <use xlink:href="#DejaVuSans-Oblique-6e" x="945.947266"/>
    </g>
   </g>
   <g id="text_5">
    <!-- Encoder  (trainable) -->
    <g style="fill: #1c2833" transform="translate(148.710703 129.845219) scale(0.125 -0.125)">
     <defs>
      <path id="DejaVuSans-Bold-45" d="M 588 4666 
L 3834 4666 
L 3834 3756 
L 1791 3756 
L 1791 2888 
L 3713 2888 
L 3713 1978 
L 1791 1978 
L 1791 909 
L 3903 909 
L 3903 0 
L 588 0 
L 588 4666 
z
" transform="scale(0.015625)"/>
      <path id="DejaVuSans-Bold-28" d="M 2413 -844 
L 1484 -844 
Q 1006 -72 778 623 
Q 550 1319 550 2003 
Q 550 2688 779 3389 
Q 1009 4091 1484 4856 
L 2413 4856 
Q 2013 4116 1813 3408 
Q 1613 2700 1613 2009 
Q 1613 1319 1811 609 
Q 2009 -100 2413 -844 
z
" transform="scale(0.015625)"/>
      <path id="DejaVuSans-Bold-6c" d="M 538 4863 
L 1656 4863 
L 1656 0 
L 538 0 
L 538 4863 
z
" transform="scale(0.015625)"/>
      <path id="DejaVuSans-Bold-29" d="M 513 -844 
Q 913 -100 1113 609 
Q 1313 1319 1313 2009 
Q 1313 2700 1113 3408 
Q 913 4116 513 4856 
L 1441 4856 
Q 1916 4091 2145 3389 
Q 2375 2688 2375 2003 
Q 2375 1319 2147 623 
Q 1919 -72 1441 -844 
L 513 -844 
z
" transform="scale(0.015625)"/>
     </defs>
     <use xlink:href="#DejaVuSans-Bold-45"/>
     <use xlink:href="#DejaVuSans-Bold-6e" x="68.310547"/>
     <use xlink:href="#DejaVuSans-Bold-63" x="139.501953"/>
     <use xlink:href="#DejaVuSans-Bold-6f" x="198.779297"/>
     <use xlink:href="#DejaVuSans-Bold-64" x="267.480469"/>
     <use xlink:href="#DejaVuSans-Bold-65" x="339.0625"/>
     <use xlink:href="#DejaVuSans-Bold-72" x="406.884766"/>
     <use xlink:href="#DejaVuSans-Bold-20" x="456.201172"/>
     <use xlink:href="#DejaVuSans-Bold-20" x="491.015625"/>
     <use xlink:href="#DejaVuSans-Bold-28" x="525.830078"/>
     <use xlink:href="#DejaVuSans-Bold-74" x="571.533203"/>
     <use xlink:href="#DejaVuSans-Bold-72" x="619.335938"/>
     <use xlink:href="#DejaVuSans-Bold-61" x="668.652344"/>
     <use xlink:href="#DejaVuSans-Bold-69" x="736.132812"/>
     <use xlink:href="#DejaVuSans-Bold-6e" x="770.410156"/>
     <use xlink:href="#DejaVuSans-Bold-61" x="841.601562"/>
     <use xlink:href="#DejaVuSans-Bold-62" x="909.082031"/>
     <use xlink:href="#DejaVuSans-Bold-6c" x="980.664062"/>
     <use xlink:href="#DejaVuSans-Bold-65" x="1014.941406"/>
     <use xlink:href="#DejaVuSans-Bold-29" x="1082.763672"/>
    </g>
   </g>
   <g id="text_6">
    <!-- pretrained with privileged target -->
    <g style="fill: #5d6d7e" transform="translate(141.608672 148.421406) scale(0.095 -0.095)">
     <defs>
      <path id="DejaVuSans-Oblique-61" d="M 3438 1997 
L 3047 0 
L 2472 0 
L 2578 531 
Q 2325 219 2001 64 
Q 1678 -91 1281 -91 
Q 834 -91 548 182 
Q 263 456 263 884 
Q 263 1497 752 1853 
Q 1241 2209 2100 2209 
L 2900 2209 
L 2931 2363 
Q 2938 2388 2941 2417 
Q 2944 2447 2944 2509 
Q 2944 2788 2717 2942 
Q 2491 3097 2081 3097 
Q 1800 3097 1504 3025 
Q 1209 2953 897 2809 
L 997 3341 
Q 1322 3463 1633 3523 
Q 1944 3584 2234 3584 
Q 2853 3584 3176 3315 
Q 3500 3047 3500 2534 
Q 3500 2431 3484 2292 
Q 3469 2153 3438 1997 
z
M 2816 1759 
L 2241 1759 
Q 1534 1759 1195 1570 
Q 856 1381 856 984 
Q 856 709 1029 553 
Q 1203 397 1509 397 
Q 1978 397 2328 733 
Q 2678 1069 2791 1631 
L 2816 1759 
z
" transform="scale(0.015625)"/>
      <path id="DejaVuSans-Oblique-64" d="M 2675 525 
Q 2444 222 2128 65 
Q 1813 -91 1428 -91 
Q 903 -91 598 267 
Q 294 625 294 1247 
Q 294 1766 478 2236 
Q 663 2706 1013 3078 
Q 1244 3325 1534 3454 
Q 1825 3584 2144 3584 
Q 2481 3584 2739 3421 
Q 2997 3259 3138 2956 
L 3513 4863 
L 4091 4863 
L 3144 0 
L 2566 0 
L 2675 525 
z
M 891 1350 
Q 891 897 1095 644 
Q 1300 391 1663 391 
Q 1931 391 2161 520 
Q 2391 650 2566 903 
Q 2750 1166 2856 1509 
Q 2963 1853 2963 2188 
Q 2963 2622 2758 2865 
Q 2553 3109 2194 3109 
Q 1922 3109 1687 2981 
Q 1453 2853 1288 2613 
Q 1106 2353 998 2009 
Q 891 1666 891 1350 
z
" transform="scale(0.015625)"/>
      <path id="DejaVuSans-Oblique-77" d="M 544 3500 
L 1113 3500 
L 1259 684 
L 2566 3500 
L 3231 3500 
L 3425 684 
L 4666 3500 
L 5241 3500 
L 3641 0 
L 2969 0 
L 2797 2900 
L 1459 0 
L 781 0 
L 544 3500 
z
" transform="scale(0.015625)"/>
      <path id="DejaVuSans-Oblique-76" d="M 459 3500 
L 1069 3500 
L 1581 525 
L 3256 3500 
L 3866 3500 
L 1875 0 
L 1100 0 
L 459 3500 
z
" transform="scale(0.015625)"/>
      <path id="DejaVuSans-Oblique-6c" d="M 1172 4863 
L 1747 4863 
L 800 0 
L 225 0 
L 1172 4863 
z
" transform="scale(0.015625)"/>
      <path id="DejaVuSans-Oblique-67" d="M 3816 3500 
L 3219 434 
Q 3047 -456 2561 -893 
Q 2075 -1331 1253 -1331 
Q 950 -1331 690 -1286 
Q 431 -1241 206 -1147 
L 313 -588 
Q 525 -725 762 -790 
Q 1000 -856 1269 -856 
Q 1816 -856 2167 -557 
Q 2519 -259 2631 300 
L 2681 563 
Q 2441 288 2122 144 
Q 1803 0 1434 0 
Q 903 0 598 351 
Q 294 703 294 1319 
Q 294 1803 478 2267 
Q 663 2731 997 3091 
Q 1219 3328 1514 3456 
Q 1809 3584 2131 3584 
Q 2484 3584 2746 3420 
Q 3009 3256 3138 2956 
L 3238 3500 
L 3816 3500 
z
M 2950 2216 
Q 2950 2641 2750 2872 
Q 2550 3103 2181 3103 
Q 1953 3103 1747 3012 
Q 1541 2922 1394 2759 
Q 1156 2491 1023 2127 
Q 891 1763 891 1375 
Q 891 944 1092 712 
Q 1294 481 1672 481 
Q 2219 481 2584 976 
Q 2950 1472 2950 2216 
z
" transform="scale(0.015625)"/>
     </defs>
     <use xlink:href="#DejaVuSans-Oblique-70"/>
     <use xlink:href="#DejaVuSans-Oblique-72" x="63.476562"/>
     <use xlink:href="#DejaVuSans-Oblique-65" x="104.589844"/>
     <use xlink:href="#DejaVuSans-Oblique-74" x="166.113281"/>
     <use xlink:href="#DejaVuSans-Oblique-72" x="205.322266"/>
     <use xlink:href="#DejaVuSans-Oblique-61" x="246.435547"/>
     <use xlink:href="#DejaVuSans-Oblique-69" x="307.714844"/>
     <use xlink:href="#DejaVuSans-Oblique-6e" x="335.498047"/>
     <use xlink:href="#DejaVuSans-Oblique-65" x="398.876953"/>
     <use xlink:href="#DejaVuSans-Oblique-64" x="460.400391"/>
     <use xlink:href="#DejaVuSans-Oblique-20" x="523.876953"/>
     <use xlink:href="#DejaVuSans-Oblique-77" x="555.664062"/>
     <use xlink:href="#DejaVuSans-Oblique-69" x="637.451172"/>
     <use xlink:href="#DejaVuSans-Oblique-74" x="665.234375"/>
     <use xlink:href="#DejaVuSans-Oblique-68" x="704.443359"/>
     <use xlink:href="#DejaVuSans-Oblique-20" x="767.822266"/>
     <use xlink:href="#DejaVuSans-Oblique-70" x="799.609375"/>
     <use xlink:href="#DejaVuSans-Oblique-72" x="863.085938"/>
     <use xlink:href="#DejaVuSans-Oblique-69" x="904.199219"/>
     <use xlink:href="#DejaVuSans-Oblique-76" x="931.982422"/>
     <use xlink:href="#DejaVuSans-Oblique-69" x="991.162109"/>
     <use xlink:href="#DejaVuSans-Oblique-6c" x="1018.945312"/>
     <use xlink:href="#DejaVuSans-Oblique-65" x="1046.728516"/>
     <use xlink:href="#DejaVuSans-Oblique-67" x="1108.251953"/>
     <use xlink:href="#DejaVuSans-Oblique-65" x="1171.728516"/>
     <use xlink:href="#DejaVuSans-Oblique-64" x="1233.251953"/>
     <use xlink:href="#DejaVuSans-Oblique-20" x="1296.728516"/>
     <use xlink:href="#DejaVuSans-Oblique-74" x="1328.515625"/>
     <use xlink:href="#DejaVuSans-Oblique-61" x="1367.724609"/>
     <use xlink:href="#DejaVuSans-Oblique-72" x="1429.003906"/>
     <use xlink:href="#DejaVuSans-Oblique-67" x="1470.117188"/>
     <use xlink:href="#DejaVuSans-Oblique-65" x="1533.59375"/>
     <use xlink:href="#DejaVuSans-Oblique-74" x="1595.117188"/>
    </g>
   </g>
   <g id="text_7">
    <!-- Task-Relevant Latent  z -->
    <g style="fill: #1c2833" transform="translate(136.903086 199.699619) scale(0.125 -0.125)">
     <defs>
      <path id="DejaVuSans-Bold-6b" d="M 538 4863 
L 1656 4863 
L 1656 2216 
L 2944 3500 
L 4244 3500 
L 2534 1894 
L 4378 0 
L 3022 0 
L 1656 1459 
L 1656 0 
L 538 0 
L 538 4863 
z
" transform="scale(0.015625)"/>
      <path id="DejaVuSans-Bold-2d" d="M 347 2297 
L 2309 2297 
L 2309 1388 
L 347 1388 
L 347 2297 
z
" transform="scale(0.015625)"/>
      <path id="DejaVuSans-Bold-52" d="M 2297 2597 
Q 2675 2597 2839 2737 
Q 3003 2878 3003 3200 
Q 3003 3519 2839 3656 
Q 2675 3794 2297 3794 
L 1791 3794 
L 1791 2597 
L 2297 2597 
z
M 1791 1766 
L 1791 0 
L 588 0 
L 588 4666 
L 2425 4666 
Q 3347 4666 3776 4356 
Q 4206 4047 4206 3378 
Q 4206 2916 3982 2619 
Q 3759 2322 3309 2181 
Q 3556 2125 3751 1926 
Q 3947 1728 4147 1325 
L 4800 0 
L 3519 0 
L 2950 1159 
Q 2778 1509 2601 1637 
Q 2425 1766 2131 1766 
L 1791 1766 
z
" transform="scale(0.015625)"/>
      <path id="DejaVuSans-Bold-4c" d="M 588 4666 
L 1791 4666 
L 1791 909 
L 3903 909 
L 3903 0 
L 588 0 
L 588 4666 
z
" transform="scale(0.015625)"/>
      <path id="DejaVuSans-Bold-7a" d="M 366 3500 
L 3419 3500 
L 3419 2719 
L 1575 800 
L 3419 800 
L 3419 0 
L 288 0 
L 288 781 
L 2131 2700 
L 366 2700 
L 366 3500 
z
" transform="scale(0.015625)"/>
     </defs>
     <use xlink:href="#DejaVuSans-Bold-54"/>
     <use xlink:href="#DejaVuSans-Bold-61" x="55.337891"/>
     <use xlink:href="#DejaVuSans-Bold-73" x="122.818359"/>
     <use xlink:href="#DejaVuSans-Bold-6b" x="182.339844"/>
     <use xlink:href="#DejaVuSans-Bold-2d" x="248.84375"/>
     <use xlink:href="#DejaVuSans-Bold-52" x="290.347656"/>
     <use xlink:href="#DejaVuSans-Bold-65" x="367.349609"/>
     <use xlink:href="#DejaVuSans-Bold-6c" x="435.171875"/>
     <use xlink:href="#DejaVuSans-Bold-65" x="469.449219"/>
     <use xlink:href="#DejaVuSans-Bold-76" x="537.271484"/>
     <use xlink:href="#DejaVuSans-Bold-61" x="602.457031"/>
     <use xlink:href="#DejaVuSans-Bold-6e" x="669.9375"/>
     <use xlink:href="#DejaVuSans-Bold-74" x="741.128906"/>
     <use xlink:href="#DejaVuSans-Bold-20" x="788.931641"/>
     <use xlink:href="#DejaVuSans-Bold-4c" x="823.746094"/>
     <use xlink:href="#DejaVuSans-Bold-61" x="887.466797"/>
     <use xlink:href="#DejaVuSans-Bold-74" x="954.947266"/>
     <use xlink:href="#DejaVuSans-Bold-65" x="1002.75"/>
     <use xlink:href="#DejaVuSans-Bold-6e" x="1070.572266"/>
     <use xlink:href="#DejaVuSans-Bold-74" x="1141.763672"/>
     <use xlink:href="#DejaVuSans-Bold-20" x="1189.566406"/>
     <use xlink:href="#DejaVuSans-Bold-20" x="1224.380859"/>
     <use xlink:href="#DejaVuSans-Bold-7a" x="1259.195312"/>
    </g>
   </g>
   <g id="text_8">
    <!-- features for policy learning -->
    <g style="fill: #5d6d7e" transform="translate(155.005898 218.275806) scale(0.095 -0.095)">
     <defs>
      <path id="DejaVuSans-Oblique-66" d="M 3059 4863 
L 2969 4384 
L 2419 4384 
Q 2106 4384 1964 4261 
Q 1822 4138 1753 3809 
L 1691 3500 
L 2638 3500 
L 2553 3053 
L 1606 3053 
L 1013 0 
L 434 0 
L 1031 3053 
L 481 3053 
L 563 3500 
L 1113 3500 
L 1159 3744 
Q 1278 4363 1576 4613 
Q 1875 4863 2516 4863 
L 3059 4863 
z
" transform="scale(0.015625)"/>
     </defs>
     <use xlink:href="#DejaVuSans-Oblique-66"/>
     <use xlink:href="#DejaVuSans-Oblique-65" x="35.205078"/>
     <use xlink:href="#DejaVuSans-Oblique-61" x="96.728516"/>
     <use xlink:href="#DejaVuSans-Oblique-74" x="158.007812"/>
     <use xlink:href="#DejaVuSans-Oblique-75" x="197.216797"/>
     <use xlink:href="#DejaVuSans-Oblique-72" x="260.595703"/>
     <use xlink:href="#DejaVuSans-Oblique-65" x="301.708984"/>
     <use xlink:href="#DejaVuSans-Oblique-73" x="363.232422"/>
     <use xlink:href="#DejaVuSans-Oblique-20" x="415.332031"/>
     <use xlink:href="#DejaVuSans-Oblique-66" x="447.119141"/>
     <use xlink:href="#DejaVuSans-Oblique-6f" x="482.324219"/>
     <use xlink:href="#DejaVuSans-Oblique-72" x="543.505859"/>
     <use xlink:href="#DejaVuSans-Oblique-20" x="584.619141"/>
     <use xlink:href="#DejaVuSans-Oblique-70" x="616.40625"/>
     <use xlink:href="#DejaVuSans-Oblique-6f" x="679.882812"/>
     <use xlink:href="#DejaVuSans-Oblique-6c" x="741.064453"/>
     <use xlink:href="#DejaVuSans-Oblique-69" x="768.847656"/>
     <use xlink:href="#DejaVuSans-Oblique-63" x="796.630859"/>
     <use xlink:href="#DejaVuSans-Oblique-79" x="851.611328"/>
     <use xlink:href="#DejaVuSans-Oblique-20" x="910.791016"/>
     <use xlink:href="#DejaVuSans-Oblique-6c" x="942.578125"/>
     <use xlink:href="#DejaVuSans-Oblique-65" x="970.361328"/>
     <use xlink:href="#DejaVuSans-Oblique-61" x="1031.884766"/>
     <use xlink:href="#DejaVuSans-Oblique-72" x="1093.164062"/>
     <use xlink:href="#DejaVuSans-Oblique-6e" x="1134.277344"/>
     <use xlink:href="#DejaVuSans-Oblique-69" x="1197.65625"/>
     <use xlink:href="#DejaVuSans-Oblique-6e" x="1225.439453"/>
     <use xlink:href="#DejaVuSans-Oblique-67" x="1288.818359"/>
    </g>
   </g>
   <g id="text_9">
    <!-- Clean State -->
    <g style="fill: #1c2833" transform="translate(374.088453 129.017406) scale(0.095 -0.095)">
     <defs>
      <path id="DejaVuSans-Bold-53" d="M 3834 4519 
L 3834 3531 
Q 3450 3703 3084 3790 
Q 2719 3878 2394 3878 
Q 1963 3878 1756 3759 
Q 1550 3641 1550 3391 
Q 1550 3203 1689 3098 
Q 1828 2994 2194 2919 
L 2706 2816 
Q 3484 2659 3812 2340 
Q 4141 2022 4141 1434 
Q 4141 663 3683 286 
Q 3225 -91 2284 -91 
Q 1841 -91 1394 -6 
Q 947 78 500 244 
L 500 1259 
Q 947 1022 1364 901 
Q 1781 781 2169 781 
Q 2563 781 2772 912 
Q 2981 1044 2981 1288 
Q 2981 1506 2839 1625 
Q 2697 1744 2272 1838 
L 1806 1941 
Q 1106 2091 782 2419 
Q 459 2747 459 3303 
Q 459 4000 909 4375 
Q 1359 4750 2203 4750 
Q 2588 4750 2994 4692 
Q 3400 4634 3834 4519 
z
" transform="scale(0.015625)"/>
     </defs>
     <use xlink:href="#DejaVuSans-Bold-43"/>
     <use xlink:href="#DejaVuSans-Bold-6c" x="73.388672"/>
     <use xlink:href="#DejaVuSans-Bold-65" x="107.666016"/>
     <use xlink:href="#DejaVuSans-Bold-61" x="175.488281"/>
     <use xlink:href="#DejaVuSans-Bold-6e" x="242.96875"/>
     <use xlink:href="#DejaVuSans-Bold-20" x="314.160156"/>
     <use xlink:href="#DejaVuSans-Bold-53" x="348.974609"/>
     <use xlink:href="#DejaVuSans-Bold-74" x="420.996094"/>
     <use xlink:href="#DejaVuSans-Bold-61" x="468.798828"/>
     <use xlink:href="#DejaVuSans-Bold-74" x="536.279297"/>
     <use xlink:href="#DejaVuSans-Bold-65" x="584.082031"/>
    </g>
   </g>
   <g id="text_10">
    <!-- privileged target -->
    <g style="fill: #5d6d7e" transform="translate(369.577125 143.386398) scale(0.085 -0.085)">
     <use xlink:href="#DejaVuSans-Oblique-70"/>
     <use xlink:href="#DejaVuSans-Oblique-72" x="63.476562"/>
     <use xlink:href="#DejaVuSans-Oblique-69" x="104.589844"/>
     <use xlink:href="#DejaVuSans-Oblique-76" x="132.373047"/>
     <use xlink:href="#DejaVuSans-Oblique-69" x="191.552734"/>
     <use xlink:href="#DejaVuSans-Oblique-6c" x="219.335938"/>
     <use xlink:href="#DejaVuSans-Oblique-65" x="247.119141"/>
     <use xlink:href="#DejaVuSans-Oblique-67" x="308.642578"/>
     <use xlink:href="#DejaVuSans-Oblique-65" x="372.119141"/>
     <use xlink:href="#DejaVuSans-Oblique-64" x="433.642578"/>
     <use xlink:href="#DejaVuSans-Oblique-20" x="497.119141"/>
     <use xlink:href="#DejaVuSans-Oblique-74" x="528.90625"/>
     <use xlink:href="#DejaVuSans-Oblique-61" x="568.115234"/>
     <use xlink:href="#DejaVuSans-Oblique-72" x="629.394531"/>
     <use xlink:href="#DejaVuSans-Oblique-67" x="670.507812"/>
     <use xlink:href="#DejaVuSans-Oblique-65" x="733.984375"/>
     <use xlink:href="#DejaVuSans-Oblique-74" x="795.507812"/>
    </g>
    <!-- (training only) -->
    <g style="fill: #5d6d7e" transform="translate(374.932789 152.904539) scale(0.085 -0.085)">
     <defs>
      <path id="DejaVuSans-Oblique-28" d="M 2731 4856 
Q 1903 3822 1495 2892 
Q 1088 1963 1088 1100 
Q 1088 606 1206 120 
Q 1325 -366 1563 -844 
L 1063 -844 
Q 775 -306 634 201 
Q 494 709 494 1197 
Q 494 2125 923 3036 
Q 1353 3947 2222 4856 
L 2731 4856 
z
" transform="scale(0.015625)"/>
      <path id="DejaVuSans-Oblique-29" d="M -397 -844 
Q 434 191 840 1120 
Q 1247 2050 1247 2913 
Q 1247 3406 1130 3892 
Q 1013 4378 775 4856 
L 1275 4856 
Q 1563 4316 1703 3812 
Q 1844 3309 1844 2822 
Q 1844 1891 1411 973 
Q 978 56 116 -844 
L -397 -844 
z
" transform="scale(0.015625)"/>
     </defs>
     <use xlink:href="#DejaVuSans-Oblique-28"/>
     <use xlink:href="#DejaVuSans-Oblique-74" x="39.013672"/>
     <use xlink:href="#DejaVuSans-Oblique-72" x="78.222656"/>
     <use xlink:href="#DejaVuSans-Oblique-61" x="119.335938"/>
     <use xlink:href="#DejaVuSans-Oblique-69" x="180.615234"/>
     <use xlink:href="#DejaVuSans-Oblique-6e" x="208.398438"/>
     <use xlink:href="#DejaVuSans-Oblique-69" x="271.777344"/>
     <use xlink:href="#DejaVuSans-Oblique-6e" x="299.560547"/>
     <use xlink:href="#DejaVuSans-Oblique-67" x="362.939453"/>
     <use xlink:href="#DejaVuSans-Oblique-20" x="426.416016"/>
     <use xlink:href="#DejaVuSans-Oblique-6f" x="458.203125"/>
     <use xlink:href="#DejaVuSans-Oblique-6e" x="519.384766"/>
     <use xlink:href="#DejaVuSans-Oblique-6c" x="582.763672"/>
     <use xlink:href="#DejaVuSans-Oblique-79" x="610.546875"/>
     <use xlink:href="#DejaVuSans-Oblique-29" x="669.726562"/>
    </g>
   </g>
   <g id="text_11">
    <!-- Corrupted Observation -->
    <g style="fill: #1c2833" transform="translate(699.193086 59.990819) scale(0.125 -0.125)">
     <use xlink:href="#DejaVuSans-Bold-43"/>
     <use xlink:href="#DejaVuSans-Bold-6f" x="73.388672"/>
     <use xlink:href="#DejaVuSans-Bold-72" x="142.089844"/>
     <use xlink:href="#DejaVuSans-Bold-72" x="191.40625"/>
     <use xlink:href="#DejaVuSans-Bold-75" x="240.722656"/>
     <use xlink:href="#DejaVuSans-Bold-70" x="311.914062"/>
     <use xlink:href="#DejaVuSans-Bold-74" x="383.496094"/>
     <use xlink:href="#DejaVuSans-Bold-65" x="431.298828"/>
     <use xlink:href="#DejaVuSans-Bold-64" x="499.121094"/>
     <use xlink:href="#DejaVuSans-Bold-20" x="570.703125"/>
     <use xlink:href="#DejaVuSans-Bold-4f" x="605.517578"/>
     <use xlink:href="#DejaVuSans-Bold-62" x="690.527344"/>
     <use xlink:href="#DejaVuSans-Bold-73" x="762.109375"/>
     <use xlink:href="#DejaVuSans-Bold-65" x="821.630859"/>
     <use xlink:href="#DejaVuSans-Bold-72" x="889.453125"/>
     <use xlink:href="#DejaVuSans-Bold-76" x="938.769531"/>
     <use xlink:href="#DejaVuSans-Bold-61" x="1003.955078"/>
     <use xlink:href="#DejaVuSans-Bold-74" x="1071.435547"/>
     <use xlink:href="#DejaVuSans-Bold-69" x="1119.238281"/>
     <use xlink:href="#DejaVuSans-Bold-6f" x="1153.515625"/>
     <use xlink:href="#DejaVuSans-Bold-6e" x="1222.216797"/>
    </g>
   </g>
   <g id="text_12">
    <!-- no clean state at inference -->
    <g style="fill: #5d6d7e" transform="translate(716.14918 78.567006) scale(0.095 -0.095)">
     <use xlink:href="#DejaVuSans-Oblique-6e"/>
     <use xlink:href="#DejaVuSans-Oblique-6f" x="63.378906"/>
     <use xlink:href="#DejaVuSans-Oblique-20" x="124.560547"/>
     <use xlink:href="#DejaVuSans-Oblique-63" x="156.347656"/>
     <use xlink:href="#DejaVuSans-Oblique-6c" x="211.328125"/>
     <use xlink:href="#DejaVuSans-Oblique-65" x="239.111328"/>
     <use xlink:href="#DejaVuSans-Oblique-61" x="300.634766"/>
     <use xlink:href="#DejaVuSans-Oblique-6e" x="361.914062"/>
     <use xlink:href="#DejaVuSans-Oblique-20" x="425.292969"/>
     <use xlink:href="#DejaVuSans-Oblique-73" x="457.080078"/>
     <use xlink:href="#DejaVuSans-Oblique-74" x="509.179688"/>
     <use xlink:href="#DejaVuSans-Oblique-61" x="548.388672"/>
     <use xlink:href="#DejaVuSans-Oblique-74" x="609.667969"/>
     <use xlink:href="#DejaVuSans-Oblique-65" x="648.876953"/>
     <use xlink:href="#DejaVuSans-Oblique-20" x="710.400391"/>
     <use xlink:href="#DejaVuSans-Oblique-61" x="742.1875"/>
     <use xlink:href="#DejaVuSans-Oblique-74" x="803.466797"/>
     <use xlink:href="#DejaVuSans-Oblique-20" x="842.675781"/>
     <use xlink:href="#DejaVuSans-Oblique-69" x="874.462891"/>
     <use xlink:href="#DejaVuSans-Oblique-6e" x="902.246094"/>
     <use xlink:href="#DejaVuSans-Oblique-66" x="965.625"/>
     <use xlink:href="#DejaVuSans-Oblique-65" x="1000.830078"/>
     <use xlink:href="#DejaVuSans-Oblique-72" x="1062.353516"/>
     <use xlink:href="#DejaVuSans-Oblique-65" x="1103.466797"/>
     <use xlink:href="#DejaVuSans-Oblique-6e" x="1164.990234"/>
     <use xlink:href="#DejaVuSans-Oblique-63" x="1228.369141"/>
     <use xlink:href="#DejaVuSans-Oblique-65" x="1283.349609"/>
    </g>
   </g>
   <g id="text_13">
    <!-- Frozen Encoder -->
    <g style="fill: #1c2833" transform="translate(725.768281 129.845219) scale(0.125 -0.125)">
     <defs>
      <path id="DejaVuSans-Bold-46" d="M 588 4666 
L 3834 4666 
L 3834 3756 
L 1791 3756 
L 1791 2888 
L 3713 2888 
L 3713 1978 
L 1791 1978 
L 1791 0 
L 588 0 
L 588 4666 
z
" transform="scale(0.015625)"/>
     </defs>
     <use xlink:href="#DejaVuSans-Bold-46"/>
     <use xlink:href="#DejaVuSans-Bold-72" x="61.935547"/>
     <use xlink:href="#DejaVuSans-Bold-6f" x="111.251953"/>
     <use xlink:href="#DejaVuSans-Bold-7a" x="179.953125"/>
     <use xlink:href="#DejaVuSans-Bold-65" x="238.15625"/>
     <use xlink:href="#DejaVuSans-Bold-6e" x="305.978516"/>
     <use xlink:href="#DejaVuSans-Bold-20" x="377.169922"/>
     <use xlink:href="#DejaVuSans-Bold-45" x="411.984375"/>
     <use xlink:href="#DejaVuSans-Bold-6e" x="480.294922"/>
     <use xlink:href="#DejaVuSans-Bold-63" x="551.486328"/>
     <use xlink:href="#DejaVuSans-Bold-6f" x="610.763672"/>
     <use xlink:href="#DejaVuSans-Bold-64" x="679.464844"/>
     <use xlink:href="#DejaVuSans-Bold-65" x="751.046875"/>
     <use xlink:href="#DejaVuSans-Bold-72" x="818.869141"/>
    </g>
   </g>
   <g id="text_14">
    <!-- weights fixed after pretraining -->
    <g style="fill: #5d6d7e" transform="translate(707.657813 148.421406) scale(0.095 -0.095)">
     <defs>
      <path id="DejaVuSans-Oblique-78" d="M 3841 3500 
L 2234 1784 
L 3219 0 
L 2559 0 
L 1819 1388 
L 531 0 
L -166 0 
L 1556 1844 
L 641 3500 
L 1300 3500 
L 1972 2234 
L 3144 3500 
L 3841 3500 
z
" transform="scale(0.015625)"/>
     </defs>
     <use xlink:href="#DejaVuSans-Oblique-77"/>
     <use xlink:href="#DejaVuSans-Oblique-65" x="81.787109"/>
     <use xlink:href="#DejaVuSans-Oblique-69" x="143.310547"/>
     <use xlink:href="#DejaVuSans-Oblique-67" x="171.09375"/>
     <use xlink:href="#DejaVuSans-Oblique-68" x="234.570312"/>
     <use xlink:href="#DejaVuSans-Oblique-74" x="297.949219"/>
     <use xlink:href="#DejaVuSans-Oblique-73" x="337.158203"/>
     <use xlink:href="#DejaVuSans-Oblique-20" x="389.257812"/>
     <use xlink:href="#DejaVuSans-Oblique-66" x="421.044922"/>
     <use xlink:href="#DejaVuSans-Oblique-69" x="456.25"/>
     <use xlink:href="#DejaVuSans-Oblique-78" x="484.033203"/>
     <use xlink:href="#DejaVuSans-Oblique-65" x="543.212891"/>
     <use xlink:href="#DejaVuSans-Oblique-64" x="604.736328"/>
     <use xlink:href="#DejaVuSans-Oblique-20" x="668.212891"/>
     <use xlink:href="#DejaVuSans-Oblique-61" x="700"/>
     <use xlink:href="#DejaVuSans-Oblique-66" x="761.279297"/>
     <use xlink:href="#DejaVuSans-Oblique-74" x="796.484375"/>
     <use xlink:href="#DejaVuSans-Oblique-65" x="835.693359"/>
     <use xlink:href="#DejaVuSans-Oblique-72" x="897.216797"/>
     <use xlink:href="#DejaVuSans-Oblique-20" x="938.330078"/>
     <use xlink:href="#DejaVuSans-Oblique-70" x="970.117188"/>
     <use xlink:href="#DejaVuSans-Oblique-72" x="1033.59375"/>
     <use xlink:href="#DejaVuSans-Oblique-65" x="1074.707031"/>
     <use xlink:href="#DejaVuSans-Oblique-74" x="1136.230469"/>
     <use xlink:href="#DejaVuSans-Oblique-72" x="1175.439453"/>
     <use xlink:href="#DejaVuSans-Oblique-61" x="1216.552734"/>
     <use xlink:href="#DejaVuSans-Oblique-69" x="1277.832031"/>
     <use xlink:href="#DejaVuSans-Oblique-6e" x="1305.615234"/>
     <use xlink:href="#DejaVuSans-Oblique-69" x="1368.994141"/>
     <use xlink:href="#DejaVuSans-Oblique-6e" x="1396.777344"/>
     <use xlink:href="#DejaVuSans-Oblique-67" x="1460.15625"/>
    </g>
   </g>
   <g id="text_15">
    <!-- Task-Relevant Latent  z -->
    <g style="fill: #1c2833" transform="translate(697.693086 199.699619) scale(0.125 -0.125)">
     <use xlink:href="#DejaVuSans-Bold-54"/>
     <use xlink:href="#DejaVuSans-Bold-61" x="55.337891"/>
     <use xlink:href="#DejaVuSans-Bold-73" x="122.818359"/>
     <use xlink:href="#DejaVuSans-Bold-6b" x="182.339844"/>
     <use xlink:href="#DejaVuSans-Bold-2d" x="248.84375"/>
     <use xlink:href="#DejaVuSans-Bold-52" x="290.347656"/>
     <use xlink:href="#DejaVuSans-Bold-65" x="367.349609"/>
     <use xlink:href="#DejaVuSans-Bold-6c" x="435.171875"/>
     <use xlink:href="#DejaVuSans-Bold-65" x="469.449219"/>
     <use xlink:href="#DejaVuSans-Bold-76" x="537.271484"/>
     <use xlink:href="#DejaVuSans-Bold-61" x="602.457031"/>
     <use xlink:href="#DejaVuSans-Bold-6e" x="669.9375"/>
     <use xlink:href="#DejaVuSans-Bold-74" x="741.128906"/>
     <use xlink:href="#DejaVuSans-Bold-20" x="788.931641"/>
     <use xlink:href="#DejaVuSans-Bold-4c" x="823.746094"/>
     <use xlink:href="#DejaVuSans-Bold-61" x="887.466797"/>
     <use xlink:href="#DejaVuSans-Bold-74" x="954.947266"/>
     <use xlink:href="#DejaVuSans-Bold-65" x="1002.75"/>
     <use xlink:href="#DejaVuSans-Bold-6e" x="1070.572266"/>
     <use xlink:href="#DejaVuSans-Bold-74" x="1141.763672"/>
     <use xlink:href="#DejaVuSans-Bold-20" x="1189.566406"/>
     <use xlink:href="#DejaVuSans-Bold-20" x="1224.380859"/>
     <use xlink:href="#DejaVuSans-Bold-7a" x="1259.195312"/>
    </g>
   </g>
   <g id="text_16">
    <!-- features for policy learning -->
    <g style="fill: #5d6d7e" transform="translate(715.795898 218.275806) scale(0.095 -0.095)">
     <use xlink:href="#DejaVuSans-Oblique-66"/>
     <use xlink:href="#DejaVuSans-Oblique-65" x="35.205078"/>
     <use xlink:href="#DejaVuSans-Oblique-61" x="96.728516"/>
     <use xlink:href="#DejaVuSans-Oblique-74" x="158.007812"/>
     <use xlink:href="#DejaVuSans-Oblique-75" x="197.216797"/>
     <use xlink:href="#DejaVuSans-Oblique-72" x="260.595703"/>
     <use xlink:href="#DejaVuSans-Oblique-65" x="301.708984"/>
     <use xlink:href="#DejaVuSans-Oblique-73" x="363.232422"/>
     <use xlink:href="#DejaVuSans-Oblique-20" x="415.332031"/>
     <use xlink:href="#DejaVuSans-Oblique-66" x="447.119141"/>
     <use xlink:href="#DejaVuSans-Oblique-6f" x="482.324219"/>
     <use xlink:href="#DejaVuSans-Oblique-72" x="543.505859"/>
     <use xlink:href="#DejaVuSans-Oblique-20" x="584.619141"/>
     <use xlink:href="#DejaVuSans-Oblique-70" x="616.40625"/>
     <use xlink:href="#DejaVuSans-Oblique-6f" x="679.882812"/>
     <use xlink:href="#DejaVuSans-Oblique-6c" x="741.064453"/>
     <use xlink:href="#DejaVuSans-Oblique-69" x="768.847656"/>
     <use xlink:href="#DejaVuSans-Oblique-63" x="796.630859"/>
     <use xlink:href="#DejaVuSans-Oblique-79" x="851.611328"/>
     <use xlink:href="#DejaVuSans-Oblique-20" x="910.791016"/>
     <use xlink:href="#DejaVuSans-Oblique-6c" x="942.578125"/>
     <use xlink:href="#DejaVuSans-Oblique-65" x="970.361328"/>
     <use xlink:href="#DejaVuSans-Oblique-61" x="1031.884766"/>
     <use xlink:href="#DejaVuSans-Oblique-72" x="1093.164062"/>
     <use xlink:href="#DejaVuSans-Oblique-6e" x="1134.277344"/>
     <use xlink:href="#DejaVuSans-Oblique-69" x="1197.65625"/>
     <use xlink:href="#DejaVuSans-Oblique-6e" x="1225.439453"/>
     <use xlink:href="#DejaVuSans-Oblique-67" x="1288.818359"/>
    </g>
   </g>
   <g id="text_17">
    <!-- Offline RL Policy -->
    <g style="fill: #1c2833" transform="translate(722.219453 269.505191) scale(0.125 -0.125)">
     <defs>
      <path id="DejaVuSans-Bold-79" d="M 78 3500 
L 1197 3500 
L 2138 1125 
L 2938 3500 
L 4056 3500 
L 2584 -331 
Q 2363 -916 2067 -1148 
Q 1772 -1381 1288 -1381 
L 641 -1381 
L 641 -647 
L 991 -647 
Q 1275 -647 1404 -556 
Q 1534 -466 1606 -231 
L 1638 -134 
L 78 3500 
z
" transform="scale(0.015625)"/>
     </defs>
     <use xlink:href="#DejaVuSans-Bold-4f"/>
     <use xlink:href="#DejaVuSans-Bold-66" x="85.009766"/>
     <use xlink:href="#DejaVuSans-Bold-66" x="128.515625"/>
     <use xlink:href="#DejaVuSans-Bold-6c" x="172.021484"/>
     <use xlink:href="#DejaVuSans-Bold-69" x="206.298828"/>
     <use xlink:href="#DejaVuSans-Bold-6e" x="240.576172"/>
     <use xlink:href="#DejaVuSans-Bold-65" x="311.767578"/>
     <use xlink:href="#DejaVuSans-Bold-20" x="379.589844"/>
     <use xlink:href="#DejaVuSans-Bold-52" x="414.404297"/>
     <use xlink:href="#DejaVuSans-Bold-4c" x="491.40625"/>
     <use xlink:href="#DejaVuSans-Bold-20" x="555.126953"/>
     <use xlink:href="#DejaVuSans-Bold-50" x="589.941406"/>
     <use xlink:href="#DejaVuSans-Bold-6f" x="663.232422"/>
     <use xlink:href="#DejaVuSans-Bold-6c" x="731.933594"/>
     <use xlink:href="#DejaVuSans-Bold-69" x="766.210938"/>
     <use xlink:href="#DejaVuSans-Bold-63" x="800.488281"/>
     <use xlink:href="#DejaVuSans-Bold-79" x="859.765625"/>
    </g>
   </g>
   <g id="text_18">
    <!-- IQL  /  TD3+BC  /  BC -->
    <g style="fill: #5d6d7e" transform="translate(730.252969 288.130206) scale(0.095 -0.095)">
     <defs>
      <path id="DejaVuSans-Oblique-49" d="M 1081 4666 
L 1716 4666 
L 806 0 
L 172 0 
L 1081 4666 
z
" transform="scale(0.015625)"/>
      <path id="DejaVuSans-Oblique-51" d="M 2309 -84 
Q 2275 -88 2237 -89 
Q 2200 -91 2125 -91 
Q 1250 -91 756 411 
Q 263 913 263 1797 
Q 263 2319 452 2844 
Q 641 3369 978 3788 
Q 1369 4269 1858 4509 
Q 2347 4750 2938 4750 
Q 3794 4750 4287 4245 
Q 4781 3741 4781 2869 
Q 4781 1928 4265 1147 
Q 3750 366 2919 44 
L 3553 -825 
L 2847 -825 
L 2309 -84 
z
M 2919 4238 
Q 2400 4238 2003 3986 
Q 1606 3734 1313 3219 
Q 1125 2891 1026 2522 
Q 928 2153 928 1778 
Q 928 1128 1239 775 
Q 1550 422 2119 422 
Q 2631 422 3032 676 
Q 3434 931 3719 1434 
Q 3909 1772 4009 2142 
Q 4109 2513 4109 2881 
Q 4109 3528 3796 3883 
Q 3484 4238 2919 4238 
z
" transform="scale(0.015625)"/>
      <path id="DejaVuSans-Oblique-4c" d="M 1075 4666 
L 1709 4666 
L 909 525 
L 3181 525 
L 3078 0 
L 172 0 
L 1075 4666 
z
" transform="scale(0.015625)"/>
      <path id="DejaVuSans-Oblique-2f" d="M 2175 4666 
L 2731 4666 
L 84 -594 
L -469 -594 
L 2175 4666 
z
" transform="scale(0.015625)"/>
      <path id="DejaVuSans-Oblique-54" d="M 378 4666 
L 4325 4666 
L 4225 4134 
L 2559 4134 
L 1759 0 
L 1125 0 
L 1925 4134 
L 275 4134 
L 378 4666 
z
" transform="scale(0.015625)"/>
      <path id="DejaVuSans-Oblique-44" d="M 1081 4666 
L 2438 4666 
Q 3519 4666 4070 4208 
Q 4622 3750 4622 2847 
Q 4622 2250 4412 1698 
Q 4203 1147 3834 769 
Q 3463 381 2891 190 
Q 2319 0 1538 0 
L 172 0 
L 1081 4666 
z
M 1613 4147 
L 909 519 
L 1734 519 
Q 2794 519 3375 1128 
Q 3956 1738 3956 2847 
Q 3956 3519 3581 3833 
Q 3206 4147 2406 4147 
L 1613 4147 
z
" transform="scale(0.015625)"/>
      <path id="DejaVuSans-Oblique-33" d="M 1013 4550 
Q 1356 4650 1679 4700 
Q 2003 4750 2316 4750 
Q 2934 4750 3296 4475 
Q 3659 4200 3659 3738 
Q 3659 3284 3373 2959 
Q 3088 2634 2584 2516 
Q 2978 2403 3162 2165 
Q 3347 1928 3347 1538 
Q 3347 1163 3167 834 
Q 2988 506 2650 269 
Q 2394 88 2037 -1 
Q 1681 -91 1216 -91 
Q 922 -91 622 -33 
Q 322 25 13 141 
L 128 738 
Q 422 575 720 495 
Q 1019 416 1331 416 
Q 1947 416 2330 733 
Q 2713 1050 2713 1556 
Q 2713 1881 2469 2057 
Q 2225 2234 1772 2234 
L 1228 2234 
L 1325 2747 
L 1900 2747 
Q 2419 2747 2717 2984 
Q 3016 3222 3016 3628 
Q 3016 3922 2797 4083 
Q 2578 4244 2181 4244 
Q 1881 4244 1567 4180 
Q 1253 4116 916 3988 
L 1013 4550 
z
" transform="scale(0.015625)"/>
      <path id="DejaVuSans-Oblique-2b" d="M 2944 4013 
L 2944 2272 
L 4684 2272 
L 4684 1741 
L 2944 1741 
L 2944 0 
L 2419 0 
L 2419 1741 
L 678 1741 
L 678 2272 
L 2419 2272 
L 2419 4013 
L 2944 4013 
z
" transform="scale(0.015625)"/>
      <path id="DejaVuSans-Oblique-42" d="M 1081 4666 
L 2694 4666 
Q 3350 4666 3675 4422 
Q 4000 4178 4000 3688 
Q 4000 3238 3720 2911 
Q 3441 2584 2988 2516 
Q 3375 2428 3569 2181 
Q 3763 1934 3763 1522 
Q 3763 819 3242 409 
Q 2722 0 1819 0 
L 172 0 
L 1081 4666 
z
M 1234 2228 
L 903 519 
L 1919 519 
Q 2491 519 2800 781 
Q 3109 1044 3109 1522 
Q 3109 1891 2904 2059 
Q 2700 2228 2247 2228 
L 1234 2228 
z
M 1606 4147 
L 1331 2741 
L 2272 2741 
Q 2775 2741 3058 2959 
Q 3341 3178 3341 3566 
Q 3341 3869 3150 4008 
Q 2959 4147 2541 4147 
L 1606 4147 
z
" transform="scale(0.015625)"/>
      <path id="DejaVuSans-Oblique-43" d="M 4447 4306 
L 4319 3641 
Q 4019 3944 3683 4091 
Q 3347 4238 2956 4238 
Q 2422 4238 2017 3981 
Q 1613 3725 1319 3200 
Q 1131 2863 1032 2486 
Q 934 2109 934 1728 
Q 934 1091 1264 756 
Q 1594 422 2222 422 
Q 2656 422 3056 561 
Q 3456 700 3834 978 
L 3688 231 
Q 3316 72 2936 -9 
Q 2556 -91 2175 -91 
Q 1278 -91 773 396 
Q 269 884 269 1753 
Q 269 2309 461 2846 
Q 653 3384 1013 3828 
Q 1394 4300 1883 4525 
Q 2372 4750 3022 4750 
Q 3422 4750 3780 4639 
Q 4138 4528 4447 4306 
z
" transform="scale(0.015625)"/>
     </defs>
     <use xlink:href="#DejaVuSans-Oblique-49"/>
     <use xlink:href="#DejaVuSans-Oblique-51" x="29.492188"/>
     <use xlink:href="#DejaVuSans-Oblique-4c" x="108.203125"/>
     <use xlink:href="#DejaVuSans-Oblique-20" x="163.916016"/>
     <use xlink:href="#DejaVuSans-Oblique-20" x="195.703125"/>
     <use xlink:href="#DejaVuSans-Oblique-2f" x="227.490234"/>
     <use xlink:href="#DejaVuSans-Oblique-20" x="261.181641"/>
     <use xlink:href="#DejaVuSans-Oblique-20" x="292.96875"/>
     <use xlink:href="#DejaVuSans-Oblique-54" x="324.755859"/>
     <use xlink:href="#DejaVuSans-Oblique-44" x="385.839844"/>
     <use xlink:href="#DejaVuSans-Oblique-33" x="462.841797"/>
     <use xlink:href="#DejaVuSans-Oblique-2b" x="526.464844"/>
     <use xlink:href="#DejaVuSans-Oblique-42" x="610.253906"/>
     <use xlink:href="#DejaVuSans-Oblique-43" x="678.857422"/>
     <use xlink:href="#DejaVuSans-Oblique-20" x="748.681641"/>
     <use xlink:href="#DejaVuSans-Oblique-20" x="780.46875"/>
     <use xlink:href="#DejaVuSans-Oblique-2f" x="812.255859"/>
     <use xlink:href="#DejaVuSans-Oblique-20" x="845.947266"/>
     <use xlink:href="#DejaVuSans-Oblique-20" x="877.734375"/>
     <use xlink:href="#DejaVuSans-Oblique-42" x="909.521484"/>
     <use xlink:href="#DejaVuSans-Oblique-43" x="978.125"/>
    </g>
   </g>
   <g id="patch_16">
    <path d="M 455.599182 168.5304 
Q 509.401183 168.5304 561.190722 168.5304 
" style="fill: none; stroke: #a04000; stroke-width: 1.8; stroke-linecap: round"/>
    <path d="M 555.990722 165.9304 
L 561.190722 168.5304 
L 555.990722 171.1304 
z
" style="fill: #a04000; stroke: #a04000; stroke-width: 1.8; stroke-linecap: round"/>
   </g>
   <g id="patch_17">
    <path d="M 372.361412 133.6032 
Q 366.550031 133.6032 362.527504 133.6032 
" style="fill: none; stroke-dasharray: 8,4.8; stroke-dashoffset: 0; stroke: #1e8449; stroke-width: 1.6; stroke-linecap: round"/>
    <path d="M 367.327504 136.0032 
L 362.527504 133.6032 
L 367.327504 131.2032 
z
" style="fill: #1e8449; stroke-dasharray: 8,4.8; stroke-dashoffset: 0; stroke: #1e8449; stroke-width: 1.6; stroke-linecap: round"/>
   </g>
   <g id="patch_18">
    <path d="M 219.24 86.815819 
Q 219.24 98.675925 219.24 108.523569 
" style="fill: none; stroke: #c0392b; stroke-width: 1.8; stroke-linecap: round"/>
    <path d="M 221.84 103.323569 
L 219.24 108.523569 
L 216.64 103.323569 
z
" style="fill: #c0392b; stroke: #c0392b; stroke-width: 1.8; stroke-linecap: round"/>
   </g>
   <g id="patch_19">
    <path d="M 219.24 156.670219 
Q 219.24 168.530325 219.24 178.377969 
" style="fill: none; stroke: #1a5276; stroke-width: 1.8; stroke-linecap: round"/>
    <path d="M 221.84 173.177969 
L 219.24 178.377969 
L 216.64 173.177969 
z
" style="fill: #1a5276; stroke: #1a5276; stroke-width: 1.8; stroke-linecap: round"/>
   </g>
   <g id="patch_20">
    <path d="M 780.03 86.815819 
Q 780.03 98.675925 780.03 108.523569 
" style="fill: none; stroke: #c0392b; stroke-width: 1.8; stroke-linecap: round"/>
    <path d="M 782.63 103.323569 
L 780.03 108.523569 
L 777.43 103.323569 
z
" style="fill: #c0392b; stroke: #c0392b; stroke-width: 1.8; stroke-linecap: round"/>
   </g>
   <g id="patch_21">
    <path d="M 780.03 156.670219 
Q 780.03 168.530325 780.03 178.377969 
" style="fill: none; stroke: #1a5276; stroke-width: 1.8; stroke-linecap: round"/>
    <path d="M 782.63 173.177969 
L 780.03 178.377969 
L 777.43 173.177969 
z
" style="fill: #1a5276; stroke: #1a5276; stroke-width: 1.8; stroke-linecap: round"/>
   </g>
   <g id="patch_22">
    <path d="M 780.03 226.524619 
Q 780.03 238.384725 780.03 248.232369 
" style="fill: none; stroke: #0e6655; stroke-width: 1.8; stroke-linecap: round"/>
    <path d="M 782.63 243.032369 
L 780.03 248.232369 
L 777.43 243.032369 
z
" style="fill: #0e6655; stroke: #0e6655; stroke-width: 1.8; stroke-linecap: round"/>
   </g>
   <g id="text_19">
    <!-- freeze after pretraining -->
    <g style="fill: #a04000" transform="translate(453.882148 190.163316) scale(0.095 -0.095)">
     <defs>
      <path id="DejaVuSans-Oblique-7a" d="M 744 3500 
L 3475 3500 
L 3372 2975 
L 738 459 
L 2913 459 
L 2822 0 
L -19 0 
L 84 525 
L 2719 3041 
L 653 3041 
L 744 3500 
z
" transform="scale(0.015625)"/>
     </defs>
     <use xlink:href="#DejaVuSans-Oblique-66"/>
     <use xlink:href="#DejaVuSans-Oblique-72" x="35.205078"/>
     <use xlink:href="#DejaVuSans-Oblique-65" x="76.318359"/>
     <use xlink:href="#DejaVuSans-Oblique-65" x="137.841797"/>
     <use xlink:href="#DejaVuSans-Oblique-7a" x="199.365234"/>
     <use xlink:href="#DejaVuSans-Oblique-65" x="251.855469"/>
     <use xlink:href="#DejaVuSans-Oblique-20" x="313.378906"/>
     <use xlink:href="#DejaVuSans-Oblique-61" x="345.166016"/>
     <use xlink:href="#DejaVuSans-Oblique-66" x="406.445312"/>
     <use xlink:href="#DejaVuSans-Oblique-74" x="441.650391"/>
     <use xlink:href="#DejaVuSans-Oblique-65" x="480.859375"/>
     <use xlink:href="#DejaVuSans-Oblique-72" x="542.382812"/>
     <use xlink:href="#DejaVuSans-Oblique-20" x="583.496094"/>
     <use xlink:href="#DejaVuSans-Oblique-70" x="615.283203"/>
     <use xlink:href="#DejaVuSans-Oblique-72" x="678.759766"/>
     <use xlink:href="#DejaVuSans-Oblique-65" x="719.873047"/>
     <use xlink:href="#DejaVuSans-Oblique-74" x="781.396484"/>
     <use xlink:href="#DejaVuSans-Oblique-72" x="820.605469"/>
     <use xlink:href="#DejaVuSans-Oblique-61" x="861.71875"/>
     <use xlink:href="#DejaVuSans-Oblique-69" x="922.998047"/>
     <use xlink:href="#DejaVuSans-Oblique-6e" x="950.78125"/>
     <use xlink:href="#DejaVuSans-Oblique-69" x="1014.160156"/>
     <use xlink:href="#DejaVuSans-Oblique-6e" x="1041.943359"/>
     <use xlink:href="#DejaVuSans-Oblique-67" x="1105.322266"/>
    </g>
   </g>
  </g>
 </g>
 <defs>
  <clipPath id="p267aa97376">
   <rect x="7.2" y="7.2" width="1004.4" height="343.728"/>
  </clipPath>
 </defs>
</svg>
